<svg width="32" height="33" viewBox="0 0 32 33" fill="none" xmlns="http://www.w3.org/2000/svg">
<path d="M13.1052 0.0159113L13.1324 31.8763L23.1891 28.8903L23.1669 2.98497L13.1052 0.0159113ZM24.4367 1.88514L24.4412 2.04779L24.443 4.12345L25.5764 4.12248L25.5745 1.8857L24.4367 1.88514ZM6.16461 1.90227L6.17161 10.0994L7.44671 10.0983L7.44079 3.15937L11.8328 3.15562L11.8317 1.89743L6.16461 1.90227ZM24.4441 5.38164L24.4451 6.50003L25.5785 6.49906L25.5775 5.38067L24.4441 5.38164ZM24.4461 7.75822L24.4602 24.2545L25.5936 24.2535L25.5796 7.75725L24.4461 7.75822ZM7.44823 11.8777L7.45034 14.3433L0.64978 14.3491L0.652525 17.5645L7.45308 17.5587L7.45519 20.0242L11.5797 15.9474L7.44823 11.8777ZM15.0301 14.2669C15.4995 14.2665 15.8808 15.0173 15.8816 15.9438C15.8824 16.8703 15.5024 17.6217 15.0329 17.6221C14.5635 17.6225 14.1822 16.8717 14.1814 15.9452C14.1806 15.0187 14.5606 14.2673 15.0301 14.2669ZM7.45671 21.8036L6.1816 21.8047L6.18806 29.3727L7.46317 29.3717L7.45671 21.8036ZM24.4613 25.5127L24.4621 26.4913L25.5955 26.4903L25.5947 25.5117L24.4613 25.5127ZM24.4632 27.7495L24.4646 29.3571L25.598 29.3562L25.5966 27.7485L24.4632 27.7495ZM0.0264302 30.9857L0.0275044 32.2439L11.8576 32.2338L11.8566 30.9756L0.0264302 30.9857ZM20.616 30.9681L16.3667 32.2299L31.7634 32.2168L31.7624 30.9586L20.616 30.9681Z" fill="black"/>
</svg>
