<svg width="19" height="19" viewBox="0 0 19 19" fill="none" xmlns="http://www.w3.org/2000/svg">
<path d="M10 3.17157L15 8.17157L5.493 17.6786C5.16402 17.3495 4.97821 16.9039 4.97596 16.4385C4.97371 15.9732 5.15521 15.5258 5.481 15.1936L5.478 15.1906C5.15086 15.5249 4.70431 15.7155 4.23659 15.7206C3.76888 15.7257 3.31831 15.5447 2.984 15.2176C2.64969 14.8904 2.45904 14.4439 2.45398 13.9762C2.44891 13.5084 2.62986 13.0579 2.957 12.7236L2.949 12.7156C2.61516 13.0294 2.17236 13.2011 1.71421 13.1944C1.25607 13.1877 0.818496 13.0031 0.494 12.6796L10 3.17157ZM17.586 2.75757L15.414 0.585573C15.0389 0.210631 14.5303 0 14 0C13.4697 0 12.9611 0.210631 12.586 0.585573L11 2.17157L16 7.17157L17.586 5.58557C17.9609 5.21052 18.1716 4.7019 18.1716 4.17157C18.1716 3.64124 17.9609 3.13263 17.586 2.75757ZM0 15.1716V18.1716H3C3 17.3759 2.68393 16.6129 2.12132 16.0503C1.55871 15.4876 0.795649 15.1716 0 15.1716Z" fill="black"/>
</svg>
